<?xml version="1.0" encoding="utf-8"?>
<!-- Generator: Adobe Illustrator 23.0.1, SVG Export Plug-In . SVG Version: 6.00 Build 0)  -->
<svg version="1.1" id="Layer_1" xmlns="http://www.w3.org/2000/svg" xmlns:xlink="http://www.w3.org/1999/xlink" x="0px" y="0px"
	 viewBox="0 0 400 100" style="enable-background:new 0 0 400 100;" xml:space="preserve">
<style type="text/css">
	.st0{fill:#fff;}
	.st1{fill:#fff;}
	.st2{fill:#146635;}
</style>
<g>
	<path class="st0" d="M394.9,53.7c-0.1,1-0.3,2-0.4,3c-1.2,8.4-4.4,15.9-10.4,22c-4.7,4.9-10.5,7.9-17.2,9.3c-3,0.7-6.1,0.9-9.2,0.9
		c-8.4,0-16.7,0-25.1,0c-1.7,0-3.3-0.2-4.8-1c-2.3-1.2-3.4-3.1-3.4-5.7c0-9,0-18.1,0-27.1c0-11.7,0.1-23.5,0-35.2
		c0-4.1,3.2-6.8,6.2-7.4c0.6-0.1,1.2-0.2,1.8-0.2c8.4,0,16.8,0,25.2,0c7.4,0,14.4,1.6,20.7,5.6c7.5,4.8,12.3,11.6,14.9,20.1
		c0.9,3,1.5,6.1,1.7,9.2c0,0.1,0.1,0.3,0.1,0.4C394.9,49.7,394.9,51.7,394.9,53.7z M339,75.4c0.2,0,0.3,0,0.4,0
		c6.2,0,12.4,0.1,18.5,0c7.2-0.1,13.1-3,17.2-8.9c5.3-7.7,6.3-16.1,3.6-24.9c-3-9.7-10.5-15.3-20.7-15.5c-6.3-0.1-12.5,0-18.8,0
		c-0.1,0-0.2,0-0.3,0.1C339,42.5,339,58.9,339,75.4z"/>
	<path class="st0" d="M5,18.4c0.1-0.2,0.2-0.4,0.3-0.7c0.8-2.8,3.3-4.7,6.3-4.7c10.1,0,20.1-0.1,30.2,0c12.4,0.1,22.2,8.7,24,21
		c1.1,7.5-0.6,14.3-5.6,20c-2.2,2.5-4.8,4.3-7.8,5.6c-0.3,0.1-0.5,0.2-0.8,0.4c2.1,2.5,4.1,5,6.2,7.5c2.7,3.3,5.6,6.7,8.2,10.1
		c1.9,2.5,2.5,5.2,1,8.1c-1.5,2.9-4,4.2-7.2,3.9c-2.7-0.2-4.7-1.7-6.2-3.9c-4.4-6.3-8.9-12.7-13.3-19c-0.9-1.3-1.9-2.7-2.8-4
		c-0.1-0.2-0.4-0.4-0.6-0.4c-5.6,0-11.2,0-16.9,0c0,0.3,0,0.6,0,0.8c0,6.3,0,12.6,0,18.9c0,3.9-2,6.5-5.6,7.5
		c-3.6,0.9-7.3-0.8-8.6-4C5.3,85,5.2,84.4,5,83.9C5,62,5,40.2,5,18.4z M19.8,26.4c0,7.8,0,15.4,0,23.2c0.2,0,0.3,0,0.4,0
		c6.9,0,13.7,0,20.6,0c2,0,4-0.4,5.8-1.4c3.4-2,5.1-5.2,5.5-9c0.7-5.7-2.5-12.8-11.2-12.8c-6.7,0-13.4,0-20.2,0
		C20.4,26.4,20.1,26.4,19.8,26.4z"/>
	<path class="st0" d="M301.9,12.1c0.4,0.1,0.7,0.2,1.1,0.3c3.1,0.8,5,3.3,5,6.4c0,21.2,0,42.3,0,63.5c0,3.7-3,6.6-6.8,6.7
		c-1.2,0-2.4-0.1-3.5-0.5c-2.7-1-4-3-4.3-5.8c0-0.4,0-0.7,0-1.1c0-20.7,0-41.4,0-62c0-3.7,1.7-6.2,5-7.1c0.5-0.1,1-0.2,1.5-0.4
		C300.5,12.1,301.2,12.1,301.9,12.1z"/>
	<path class="st1" d="M149.1,12.2c0,0,0-0.1,0-0.1c15.6,0,31.1,0,46.7,0c0,0,0,0.1,0,0.1c-0.4,0-0.9,0-1.3,0c-14.7,0-29.4,0-44.1,0
		C150,12.3,149.5,12.2,149.1,12.2z"/>
	<path class="st2" d="M259.6,89.5c-4.6,0-9.1,0-13.7,0c-11-0.1-20.5-3.9-28.2-11.8c-7.9-8-11.6-17.7-11-28.9
		c0.9-17.4,13.3-32,30.4-35.6c13.3-2.8,25,0.7,34.7,10.1c6.6,6.3,10.3,14.1,11.6,23c0.2,1.5,0.3,3,0.3,4.5c0,10.5,0,20.9,0,31.4
		c0,4.1-3.1,7.2-7.2,7.2C270.8,89.5,265.2,89.5,259.6,89.5z M253.8,76C253.8,76,253.8,76,253.8,76c3.2,0,6.4,0.1,9.5,0
		c2.7,0,4.8-1.4,6.1-3.8c0.8-1.4,0.8-2.9,0.8-4.4c0-5.4,0-10.7,0-16.1c0-4.3-1-8.4-2.9-12.3c-5-9.8-16.2-15.3-26.9-13.2
		c-13.4,2.7-22.2,15.3-19.9,28.8c1.8,11.1,11.7,20.2,23.8,20.8C247.4,76.1,250.6,76,253.8,76z"/>
	<path class="st0" d="M94.3,27.5c0,5.5,0,11,0,16.5c0.3,0,0.5,0,0.8,0c9,0,18,0,26.9,0c3.8,0,6.5,2.1,7.3,5.6
		c1.1,4.8-2.2,8.9-7.1,8.9c-9,0-18,0-26.9,0c-0.3,0-0.6,0-0.9,0c0,5.5,0,11,0,16.5c0.3,0,0.6,0,0.9,0c10.8,0,21.5,0,32.3,0
		c1.7,0,3.3,0.2,4.7,1.1c2.7,1.6,4.1,4.8,3.4,7.8c-0.6,3.1-3,5.1-6.2,5.5c-0.6,0.1-1.3,0.1-1.9,0.1c-13.7,0-27.3,0-41,0
		c-4.1,0-7-2.9-7-7c0-20.8,0-41.7,0-62.5c0-4,2.9-7,6.9-7c13.2,0,26.4,0,39.6,0c4.5,0,7.6,3,7.5,7.4c-0.1,4.1-3.2,7-7.6,7
		c-10.3,0-20.5,0-30.8,0C94.9,27.5,94.6,27.5,94.3,27.5z"/>
	<path class="st0" d="M149.1,12.2c0.4,0,0.9,0,1.3,0c14.7,0,29.4,0,44.1,0c0.4,0,0.9,0,1.3,0c3.4,0.3,6,2.1,6.7,4.9
		c0.7,2.4,0.2,4.6-1,6.6c-1.2,1.9-2.7,3.7-4.1,5.5c-11.7,15.2-23.4,30.4-35.1,45.6c-0.1,0.2-0.2,0.3-0.4,0.6c0.4,0,0.7,0,1,0
		c11.6,0,23.2,0,34.8,0c3.2,0,5.6,1.8,6.6,4.8c0.9,3,0,6.1-2.4,7.8c-1.4,1-3.1,1.4-4.8,1.4c-16.1,0-32.1,0-48.2,0
		c-3.3,0-6-1.8-7-4.5c-0.9-2.4-0.4-4.7,1.2-6.7c8.5-11.3,17.1-22.7,25.6-34c4.5-6,9-12,13.6-18c0.1-0.1,0.2-0.2,0.3-0.5
		c-0.4,0-0.7,0-0.9,0c-10.5,0-21,0-31.6,0c-2.6,0-4.8-0.9-6.2-3.3C141.9,18.7,143.8,12.9,149.1,12.2z"/>
</g>
</svg>
